<?xml version="1.0" encoding="UTF-8" standalone="no"?>
<!-- Created with Inkscape (http://www.inkscape.org/) -->

<svg
   xmlns:dc="http://purl.org/dc/elements/1.1/"
   xmlns:cc="http://creativecommons.org/ns#"
   xmlns:rdf="http://www.w3.org/1999/02/22-rdf-syntax-ns#"
   xmlns:svg="http://www.w3.org/2000/svg"
   xmlns="http://www.w3.org/2000/svg"
   xmlns:sodipodi="http://sodipodi.sourceforge.net/DTD/sodipodi-0.dtd"
   xmlns:inkscape="http://www.inkscape.org/namespaces/inkscape"
   width="25.492409mm"
   height="25.492409mm"
   viewBox="0 0 90.327432 90.327432"
   id="svg2"
   version="1.1"
   inkscape:version="0.91 r13725"
   sodipodi:docname="questionmark.svg">
  <defs
     id="defs4" />
  <sodipodi:namedview
     id="base"
     pagecolor="#ffffff"
     bordercolor="#666666"
     borderopacity="1.0"
     inkscape:pageopacity="0.0"
     inkscape:pageshadow="2"
     inkscape:zoom="3.959798"
     inkscape:cx="78.218813"
     inkscape:cy="14.058202"
     inkscape:document-units="px"
     inkscape:current-layer="layer1"
     showgrid="false"
     fit-margin-top="0"
     fit-margin-left="0"
     fit-margin-right="0"
     fit-margin-bottom="0"
     inkscape:window-width="1615"
     inkscape:window-height="1026"
     inkscape:window-x="65"
     inkscape:window-y="24"
     inkscape:window-maximized="1" />
  <metadata
     id="metadata7">
    <rdf:RDF>
      <cc:Work
         rdf:about="">
        <dc:format>image/svg+xml</dc:format>
        <dc:type
           rdf:resource="http://purl.org/dc/dcmitype/StillImage" />
        <dc:title></dc:title>
      </cc:Work>
    </rdf:RDF>
  </metadata>
  <g
     inkscape:label="Ebene 1"
     inkscape:groupmode="layer"
     id="layer1"
     transform="translate(-197.2395,-261.76799)">
    <g
       style="font-style:normal;font-variant:normal;font-weight:normal;font-stretch:normal;font-size:90px;line-height:125%;font-family:cmss10;-inkscape-font-specification:cmss10;text-align:start;letter-spacing:0px;word-spacing:0px;writing-mode:lr-tb;text-anchor:start;fill:#000000;fill-opacity:1;stroke:none;stroke-width:1px;stroke-linecap:butt;stroke-linejoin:miter;stroke-opacity:1"
       id="text4136"
       transform="translate(-55.203349,-12.626907)">
      <path
         style="font-style:normal;font-variant:normal;font-weight:normal;font-stretch:normal;font-family:cmssbx10;-inkscape-font-specification:cmssbx10"
         d="m 293.18219,352.36221 c -2.19506,-0.0119 -3.36038,-2.28071 -3.07617,-4.24066 0.1,-1.93159 -0.22573,-3.91535 0.21526,-5.80616 0.66965,-2.24848 3.16961,-2.14472 5.04432,-2.08208 1.83931,0.15372 3.86106,-0.42872 5.51801,0.59326 2.02452,1.42839 1.23835,3.99709 1.39526,6.07798 0.0161,1.85518 0.2816,4.29085 -1.8457,5.15005 -1.9902,0.59634 -4.12356,0.18675 -6.17953,0.30761 -0.35715,0 -0.7143,0 -1.07145,0 z m -1.80176,-18.98437 c -0.0564,-4.41804 -0.0874,-8.94905 1.61735,-13.1139 1.80444,-4.99035 5.14855,-9.21885 8.73504,-13.04643 1.48751,-2.66196 1.26323,-6.00467 0.54605,-8.86409 -0.86826,-2.67183 -4.14589,-2.58918 -6.45361,-2.58642 -4.49184,0.13428 -8.88077,2.40555 -11.56397,6.01416 -1.54075,1.39128 -2.30654,-0.7677 -2.61399,-1.95783 -0.60502,-1.81325 -1.36705,-3.58302 -1.86844,-5.42498 1.61698,-2.42593 5.14254,-3.10296 7.76836,-4.20348 6.26685,-1.87469 13.0882,-1.63758 19.35551,0.1042 4.55917,1.36109 8.18285,5.51898 8.42154,10.34294 0.55132,4.73907 -0.93634,10.1574 -5.22229,12.76234 -5.31741,3.82804 -9.40178,10.05188 -9.00964,16.80388 -0.13865,1.29706 0.33108,2.76885 -0.35157,3.91668 -1.16693,0.60544 -2.61221,0.18077 -3.90546,0.30762 -1.61493,-0.0464 -3.24756,0.0959 -4.85064,-0.0769 -0.40993,-0.13469 -0.59288,-0.58378 -0.60424,-0.97779 z"
         id="path4141"
         inkscape:connector-curvature="0" />
    </g>
    <circle
       style="color:#000000;clip-rule:nonzero;display:inline;overflow:visible;visibility:visible;opacity:0.98999999;isolation:auto;mix-blend-mode:normal;color-interpolation:sRGB;color-interpolation-filters:linearRGB;solid-color:#000000;solid-opacity:1;fill:none;fill-opacity:1;fill-rule:nonzero;stroke:#000000;stroke-width:8;stroke-linecap:round;stroke-linejoin:miter;stroke-miterlimit:4;stroke-dasharray:none;stroke-dashoffset:0;stroke-opacity:1;marker:none;color-rendering:auto;image-rendering:auto;shape-rendering:auto;text-rendering:auto;enable-background:accumulate"
       id="path4135"
       cx="242.40321"
       cy="306.9317"
       r="41.163715" />
  </g>
</svg>
