<?xml version="1.0" encoding="UTF-8" standalone="no"?>
<!-- Generator: Adobe Illustrator 18.0.0, SVG Export Plug-In . SVG Version: 6.00 Build 0)  -->

<svg
   xmlns:dc="http://purl.org/dc/elements/1.1/"
   xmlns:cc="http://creativecommons.org/ns#"
   xmlns:rdf="http://www.w3.org/1999/02/22-rdf-syntax-ns#"
   xmlns:svg="http://www.w3.org/2000/svg"
   xmlns="http://www.w3.org/2000/svg"
   xmlns:sodipodi="http://sodipodi.sourceforge.net/DTD/sodipodi-0.dtd"
   xmlns:inkscape="http://www.inkscape.org/namespaces/inkscape"
   version="1.1"
   id="Capa_1"
   x="0px"
   y="0px"
   viewBox="0 0 478.37086 426.73194"
   xml:space="preserve"
   inkscape:version="0.91 r13725"
   sodipodi:docname="swap.svg"
   width="478.37085"
   height="426.73193"><metadata
     id="metadata47"><rdf:RDF><cc:Work
         rdf:about=""><dc:format>image/svg+xml</dc:format><dc:type
           rdf:resource="http://purl.org/dc/dcmitype/StillImage" /><dc:title></dc:title></cc:Work></rdf:RDF></metadata><defs
     id="defs45" /><sodipodi:namedview
     pagecolor="#ffffff"
     bordercolor="#666666"
     borderopacity="1"
     objecttolerance="10"
     gridtolerance="10"
     guidetolerance="10"
     inkscape:pageopacity="0"
     inkscape:pageshadow="2"
     inkscape:window-width="1615"
     inkscape:window-height="1026"
     id="namedview43"
     showgrid="false"
     fit-margin-top="0"
     fit-margin-left="0"
     fit-margin-right="0"
     fit-margin-bottom="0"
     inkscape:zoom="0.95908254"
     inkscape:cx="291.23712"
     inkscape:cy="182.27454"
     inkscape:window-x="65"
     inkscape:window-y="24"
     inkscape:window-maximized="1"
     inkscape:current-layer="g3" /><g
     id="g3"
     transform="translate(-0.23236228,-9.7638984)"><path
       d="m 153.147,77.396 c 38.885,-38.88 98.156,-45.054 143.668,-18.795 l -11.98,11.979 c -3.447,3.439 -4.475,8.597 -2.615,13.094 1.858,4.465 6.225,7.409 11.1,7.399 l 53.076,-0.022 c 6.627,0 12.012,-5.389 12.012,-12.003 l 0,-53.057 c 0,-4.891 -2.918,-9.254 -7.393,-11.105 -4.52,-1.852 -9.667,-0.826 -13.099,2.607 l -17.144,17.15 C 261.856,-4.1 181.702,2.403 129.927,54.176 c -6.418,6.414 -6.418,16.806 0,23.221 6.413,6.412 16.802,6.412 23.22,-0.001 z"
       id="path5"
       inkscape:connector-curvature="0" /><path
       d="m 330.11439,368.85682 c -38.886,38.878 -98.158,45.054 -143.668,18.792 l 11.98,-11.978 c 3.446,-3.44 4.475,-8.594 2.616,-13.094 -1.864,-4.465 -6.227,-7.406 -11.102,-7.399 l -53.076,0.024 c -6.626,0 -12.011,5.388 -12.011,12.002 l 0,53.057 c 0,4.891 2.917,9.253 7.393,11.105 4.518,1.852 9.667,0.826 13.099,-2.607 l 17.143,-17.15 c 25.223,16.582 54.332,24.887 83.452,24.887 38.89,0 77.775,-14.809 107.395,-44.419 6.417,-6.415 6.417,-16.807 0,-23.22 -6.415,-6.416 -16.803,-6.416 -23.221,0 z"
       id="path7"
       inkscape:connector-curvature="0" /><path
       d="m 176.80836,122.72896 -159.194998,0 c -9.5879997,0 -17.38099972,7.801 -17.38099972,17.384 l 0,154.209 c 0,9.598 10.92098972,19.48333 20.50898872,19.48333 29.075693,0.0818 128.987659,1.45099 155.742319,-0.94865 16.58709,0.007 19.56882,-10.6218 19.81102,-26.85878 l -2.08533,-145.8849 c -0.13697,-9.58202 -7.813,-17.384 -17.401,-17.384 z m -17.4,34.784 0,117.35888 c 0,0 -46.31005,2.04912 -124.394998,2.04912 l 0,-119.408 z"
       id="path11-3"
       inkscape:connector-curvature="0"
       sodipodi:nodetypes="sssscccssccccc" /><path
       d="m 459.11687,122.14715 -159.195,0 c -9.588,0 -17.381,7.801 -17.381,17.384 l 0,154.209 c 0,9.598 10.92099,19.48333 20.50899,19.48333 29.0757,0.0818 128.98766,1.45099 155.74232,-0.94865 16.58709,0.007 19.56882,-10.6218 19.81102,-26.85878 l -2.08533,-145.8849 c -0.13697,-9.58202 -7.813,-17.384 -17.401,-17.384 z m -17.4,34.784 0,117.35888 c 0,0 -46.31005,2.04912 -124.395,2.04912 l 0,-119.408 z"
       id="path11-3-6"
       inkscape:connector-curvature="0"
       sodipodi:nodetypes="sssscccssccccc" /></g><g
     id="g13"
     transform="translate(-0.23236228,-9.7638984)" /><g
     id="g15"
     transform="translate(-0.23236228,-9.7638984)" /><g
     id="g17"
     transform="translate(-0.23236228,-9.7638984)" /><g
     id="g19"
     transform="translate(-0.23236228,-9.7638984)" /><g
     id="g21"
     transform="translate(-0.23236228,-9.7638984)" /><g
     id="g23"
     transform="translate(-0.23236228,-9.7638984)" /><g
     id="g25"
     transform="translate(-0.23236228,-9.7638984)" /><g
     id="g27"
     transform="translate(-0.23236228,-9.7638984)" /><g
     id="g29"
     transform="translate(-0.23236228,-9.7638984)" /><g
     id="g31"
     transform="translate(-0.23236228,-9.7638984)" /><g
     id="g33"
     transform="translate(-0.23236228,-9.7638984)" /><g
     id="g35"
     transform="translate(-0.23236228,-9.7638984)" /><g
     id="g37"
     transform="translate(-0.23236228,-9.7638984)" /><g
     id="g39"
     transform="translate(-0.23236228,-9.7638984)" /><g
     id="g41"
     transform="translate(-0.23236228,-9.7638984)" /></svg>